<?xml version="1.0" encoding="UTF-8"?>
<svg xmlns="http://www.w3.org/2000/svg" viewBox="0 0 512 512" role="img" aria-labelledby="title desc">
  <title id="title">RetailCRM SLA Guard</title>
  <desc id="desc">A shield with a clock face and a lightning-shaped S mark, representing order SLA protection and fast alerts.</desc>
  <defs>
    <linearGradient id="shield" x1="96" y1="68" x2="420" y2="440" gradientUnits="userSpaceOnUse">
      <stop offset="0" stop-color="#8FD4FF"/>
      <stop offset="1" stop-color="#78F0AA"/>
    </linearGradient>
    <linearGradient id="face" x1="164" y1="146" x2="350" y2="366" gradientUnits="userSpaceOnUse">
      <stop offset="0" stop-color="#182432"/>
      <stop offset="1" stop-color="#0A1018"/>
    </linearGradient>
    <filter id="shadow" x="-20%" y="-20%" width="140%" height="150%">
      <feDropShadow dx="0" dy="16" stdDeviation="18" flood-color="#02060B" flood-opacity="0.32"/>
    </filter>
  </defs>

  <path d="M256 38 430 102v130c0 112-65 203-174 242C147 435 82 344 82 232V102L256 38Z" fill="url(#shield)" filter="url(#shadow)"/>
  <path d="M256 73 398 125v107c0 91-50 165-142 202-92-37-142-111-142-202V125L256 73Z" fill="#0C131D" opacity="0.94"/>

  <circle cx="256" cy="247" r="116" fill="url(#face)" stroke="#BFF5D2" stroke-width="12"/>
  <path d="M256 150v23M256 321v23M159 247h23M330 247h23" stroke="#DDF9E7" stroke-width="12" stroke-linecap="round" opacity="0.92"/>
  <path d="M256 247V187M256 247l48 30" stroke="#8FD4FF" stroke-width="16" stroke-linecap="round" stroke-linejoin="round"/>
  <circle cx="256" cy="247" r="13" fill="#DDF9E7"/>

  <path d="M291 126h-70l-35 68h61l-31 67 109-96h-66l32-39Z" fill="url(#shield)" stroke="#0C131D" stroke-width="8" stroke-linejoin="round"/>

  <path d="M183 391c23 17 47 29 73 39 26-10 50-22 73-39" fill="none" stroke="#8FD4FF" stroke-width="12" stroke-linecap="round" opacity="0.9"/>
</svg>
